<svg xmlns="http://www.w3.org/2000/svg" viewBox="0 0 60 80" width="60" height="80">
  <defs>
    <linearGradient id="rb-wrist-skin" x1="0" y1="0" x2="1" y2="0.5">
      <stop offset="0%" stop-color="#d4956e"/>
      <stop offset="50%" stop-color="#c48a6a"/>
      <stop offset="100%" stop-color="#a87050"/>
    </linearGradient>
    <linearGradient id="rb-wrist-wrap" x1="0" y1="0" x2="0" y2="1">
      <stop offset="0%" stop-color="#5a3a22"/>
      <stop offset="50%" stop-color="#4a2e1a"/>
      <stop offset="100%" stop-color="#3a2212"/>
    </linearGradient>
  </defs>
  <!-- Wrist anatomy -->
  <path d="M12 5 C8 15 6 30 8 45 C10 60 14 72 22 78 C30 82 40 80 46 74 C52 66 56 50 56 35 C56 20 52 10 46 5 C38 0 28 0 20 2 C16 3 13 4 12 5Z" fill="url(#rb-wrist-skin)"/>
  <!-- Leather wrist wrap -->
  <path d="M10 20 C8 28 8 38 10 48 C12 55 16 60 22 62 L44 60 C50 56 54 48 54 38 C54 28 52 22 48 18 L14 18 C12 18 11 19 10 20Z" fill="url(#rb-wrist-wrap)"/>
  <!-- Wrap leather texture lines -->
  <path d="M12 24 C20 22 35 22 50 24" fill="none" stroke="#6b4a30" stroke-width="1.5" stroke-opacity="0.5" stroke-linecap="round"/>
  <path d="M11 32 C20 30 36 30 52 32" fill="none" stroke="#6b4a30" stroke-width="1.5" stroke-opacity="0.5" stroke-linecap="round"/>
  <path d="M11 40 C20 38 36 38 52 40" fill="none" stroke="#6b4a30" stroke-width="1.5" stroke-opacity="0.5" stroke-linecap="round"/>
  <path d="M12 48 C20 46 36 46 50 48" fill="none" stroke="#6b4a30" stroke-width="1.5" stroke-opacity="0.4" stroke-linecap="round"/>
  <!-- Wrap cross-stitch -->
  <path d="M18 20 L22 28 M26 19 L30 27 M34 19 L38 27 M42 20 L46 28" stroke="#7a5a3a" stroke-width="1" stroke-opacity="0.4" stroke-linecap="round"/>
  <!-- Wrap edge highlight -->
  <path d="M10 20 C8 28 8 38 10 48" fill="none" stroke="#8a6a4a" stroke-width="1.5" stroke-opacity="0.4" stroke-linecap="round"/>
  <!-- Tendon hints above wrap -->
  <path d="M22 5 C22 10 22 14 22 18 M32 4 C32 9 32 13 32 17 M42 5 C42 10 42 14 42 18" stroke="#a06b4a" stroke-width="1" stroke-opacity="0.25" stroke-linecap="round"/>
  <!-- Wear marks on wrap -->
  <path d="M15 35 C16 34 18 34 19 35 M40 42 C41 41 43 41 44 42" stroke="#2a1a0a" stroke-width="1.5" stroke-opacity="0.3" stroke-linecap="round"/>
</svg>
